# xmcd
#
# Track frame offsets:
# 150
# 14830
# 31375
# 42938
# 56657
# 72286
# 85007
# 98960
# 117622
# 131158
# 145221
# 164703
# 180287
#
# Disc length: 2640 seconds
#
#
# Revision: 0
# Processed by: cddbd v1.5.2PL0 Copyright (c) Steve Scherf et al.
# Submitted via: FreeRIP 2.951 
#
DISCID=bd0a4e0d
DTITLE=Jimmy Buffett Golden record - Golden record
DYEAR=1979
DGENRE=Country
TTITLE0=Saxophones
TTITLE1=Peanut butter Conspiracy
TTITLE2=West Nashville grand ballroom grown
TTITLE3=The great filling station holdup
TTITLE4=Livingston´s gone to Texas
TTITLE5=Pencil thin moustache
TTITLE6=Come monday
TTITLE7=Migration
TTITLE8=The wind and I know
TTITLE9=My lovely lady
TTITLE10=Trying to reason with hurricane season
TTITLE11=He went to Paris
TTITLE12=Making music for money
EXTD=
EXTT0=
EXTT1=
EXTT2=
EXTT3=
EXTT4=
EXTT5=
EXTT6=
EXTT7=
EXTT8=
EXTT9=
EXTT10=
EXTT11=
EXTT12=
PLAYORDER=
